<?xml version="1.0" standalone="no"?>
<svg xmlns:xlink="http://www.w3.org/1999/xlink" id="wave" style="transform:rotate(0deg); transition: 0.3s" viewBox="0 0 1440 100" version="1.1" xmlns="http://www.w3.org/2000/svg"><defs><linearGradient id="sw-gradient-0" x1="0" x2="0" y1="1" y2="0"><stop stop-color="rgba(255, 255, 255, 1)" offset="0%"/><stop stop-color="rgba(0, 0, 0, 1)" offset="100%"/></linearGradient></defs><path style="transform:translate(0, 0px); opacity:1" fill="url(#sw-gradient-0)" d="M0,0L180,50L360,20L540,80L720,70L900,90L1080,50L1260,60L1440,10L1620,30L1800,80L1980,0L2160,60L2340,90L2520,20L2700,30L2880,40L3060,10L3240,90L3420,60L3600,90L3780,20L3960,60L4140,70L4320,10L4320,100L4140,100L3960,100L3780,100L3600,100L3420,100L3240,100L3060,100L2880,100L2700,100L2520,100L2340,100L2160,100L1980,100L1800,100L1620,100L1440,100L1260,100L1080,100L900,100L720,100L540,100L360,100L180,100L0,100Z"/></svg>